<?xml version="1.0" encoding="utf-8" standalone="no"?>
<!DOCTYPE svg PUBLIC "-//W3C//DTD SVG 1.1//EN"
  "http://www.w3.org/Graphics/SVG/1.1/DTD/svg11.dtd">
<svg xmlns:xlink="http://www.w3.org/1999/xlink" width="2160pt" height="2160pt" viewBox="0 0 2160 2160" xmlns="http://www.w3.org/2000/svg" version="1.1">
 <metadata>
  <rdf:RDF xmlns:dc="http://purl.org/dc/elements/1.1/" xmlns:cc="http://creativecommons.org/ns#" xmlns:rdf="http://www.w3.org/1999/02/22-rdf-syntax-ns#">
   <cc:Work>
    <dc:type rdf:resource="http://purl.org/dc/dcmitype/StillImage"/>
    <dc:date>2023-06-12T17:30:30.489967</dc:date>
    <dc:format>image/svg+xml</dc:format>
    <dc:creator>
     <cc:Agent>
      <dc:title>Matplotlib v3.7.1, https://matplotlib.org/</dc:title>
     </cc:Agent>
    </dc:creator>
   </cc:Work>
  </rdf:RDF>
 </metadata>
 <defs>
  <style type="text/css">*{stroke-linejoin: round; stroke-linecap: butt}</style>
 </defs>
 <g id="figure_1">
  <g id="patch_1">
   <path d="M 0 2160 
L 2160 2160 
L 2160 0 
L 0 0 
z
" style="fill: #ffffff"/>
  </g>
  <g id="axes_1">
   <g id="patch_2">
    <path d="M 270 1922.4 
L 1944 1922.4 
L 1944 259.2 
L 270 259.2 
z
" style="fill: #ffffff"/>
   </g>
   <g id="LineCollection_1">
    <path d="M 1739.72278 798.064709 
L 1664.294547 631.242022 
" clip-path="url(#p4975a43a30)" style="fill: none; stroke: #808080; stroke-opacity: 0.5"/>
    <path d="M 1739.72278 798.064709 
L 1592.786958 1011.510608 
" clip-path="url(#p4975a43a30)" style="fill: none; stroke: #808080; stroke-opacity: 0.5"/>
    <path d="M 1739.72278 798.064709 
L 1798.735537 480.489779 
" clip-path="url(#p4975a43a30)" style="fill: none; stroke: #808080; stroke-opacity: 0.5"/>
    <path d="M 1664.294547 631.242022 
L 1592.786958 1011.510608 
" clip-path="url(#p4975a43a30)" style="fill: none; stroke: #808080; stroke-opacity: 0.5"/>
    <path d="M 1664.294547 631.242022 
L 1798.735537 480.489779 
" clip-path="url(#p4975a43a30)" style="fill: none; stroke: #808080; stroke-opacity: 0.5"/>
    <path d="M 1592.786958 1011.510608 
L 1487.044245 1431.222375 
" clip-path="url(#p4975a43a30)" style="fill: none; stroke: #808080; stroke-opacity: 0.5"/>
    <path d="M 1487.044245 1431.222375 
L 1397.246544 1778.072727 
" clip-path="url(#p4975a43a30)" style="fill: none; stroke: #808080; stroke-opacity: 0.5"/>
    <path d="M 749.309222 753.237199 
L 545.555686 690.587471 
" clip-path="url(#p4975a43a30)" style="fill: none; stroke: #808080; stroke-opacity: 0.5"/>
    <path d="M 545.555686 690.587471 
L 415.264463 936.399064 
" clip-path="url(#p4975a43a30)" style="fill: none; stroke: #808080; stroke-opacity: 0.5"/>
    <path d="M 545.555686 690.587471 
L 422.037396 403.527273 
" clip-path="url(#p4975a43a30)" style="fill: none; stroke: #808080; stroke-opacity: 0.5"/>
   </g>
   <g id="matplotlib.axis_1">
    <g id="xtick_1"/>
    <g id="xtick_2"/>
    <g id="xtick_3"/>
    <g id="xtick_4"/>
    <g id="xtick_5"/>
    <g id="xtick_6"/>
    <g id="xtick_7"/>
    <g id="xtick_8"/>
   </g>
   <g id="matplotlib.axis_2">
    <g id="ytick_1"/>
    <g id="ytick_2"/>
    <g id="ytick_3"/>
    <g id="ytick_4"/>
   </g>
   <g id="PathCollection_1">
    <defs>
     <path id="m47f109959f" d="M 0 8.660254 
C 2.296726 8.660254 4.499694 7.747755 6.123724 6.123724 
C 7.747755 4.499694 8.660254 2.296726 8.660254 0 
C 8.660254 -2.296726 7.747755 -4.499694 6.123724 -6.123724 
C 4.499694 -7.747755 2.296726 -8.660254 0 -8.660254 
C -2.296726 -8.660254 -4.499694 -7.747755 -6.123724 -6.123724 
C -7.747755 -4.499694 -8.660254 -2.296726 -8.660254 0 
C -8.660254 2.296726 -7.747755 4.499694 -6.123724 6.123724 
C -4.499694 7.747755 -2.296726 8.660254 0 8.660254 
z
" style="stroke: #dcdcdc; stroke-opacity: 0.6"/>
    </defs>
    <g clip-path="url(#p4975a43a30)">
     <use xlink:href="#m47f109959f" x="1739.72278" y="798.064709" style="fill: #dcdcdc; fill-opacity: 0.6; stroke: #dcdcdc; stroke-opacity: 0.6"/>
     <use xlink:href="#m47f109959f" x="1664.294547" y="631.242022" style="fill: #dcdcdc; fill-opacity: 0.6; stroke: #dcdcdc; stroke-opacity: 0.6"/>
     <use xlink:href="#m47f109959f" x="1592.786958" y="1011.510608" style="fill: #dcdcdc; fill-opacity: 0.6; stroke: #dcdcdc; stroke-opacity: 0.6"/>
     <use xlink:href="#m47f109959f" x="1798.735537" y="480.489779" style="fill: #dcdcdc; fill-opacity: 0.6; stroke: #dcdcdc; stroke-opacity: 0.6"/>
     <use xlink:href="#m47f109959f" x="1487.044245" y="1431.222375" style="fill: #dcdcdc; fill-opacity: 0.6; stroke: #dcdcdc; stroke-opacity: 0.6"/>
     <use xlink:href="#m47f109959f" x="1397.246544" y="1778.072727" style="fill: #dcdcdc; fill-opacity: 0.6; stroke: #dcdcdc; stroke-opacity: 0.6"/>
     <use xlink:href="#m47f109959f" x="749.309222" y="753.237199" style="fill: #dcdcdc; fill-opacity: 0.6; stroke: #dcdcdc; stroke-opacity: 0.6"/>
     <use xlink:href="#m47f109959f" x="545.555686" y="690.587471" style="fill: #dcdcdc; fill-opacity: 0.6; stroke: #dcdcdc; stroke-opacity: 0.6"/>
     <use xlink:href="#m47f109959f" x="415.264463" y="936.399064" style="fill: #dcdcdc; fill-opacity: 0.6; stroke: #dcdcdc; stroke-opacity: 0.6"/>
     <use xlink:href="#m47f109959f" x="422.037396" y="403.527273" style="fill: #dcdcdc; fill-opacity: 0.6; stroke: #dcdcdc; stroke-opacity: 0.6"/>
    </g>
   </g>
   <g id="patch_3">
    <path d="M 270 1922.4 
L 270 259.2 
" style="fill: none; stroke: #000000; stroke-width: 0.8; stroke-linejoin: miter; stroke-linecap: square"/>
   </g>
   <g id="patch_4">
    <path d="M 1944 1922.4 
L 1944 259.2 
" style="fill: none; stroke: #000000; stroke-width: 0.8; stroke-linejoin: miter; stroke-linecap: square"/>
   </g>
   <g id="patch_5">
    <path d="M 270 1922.4 
L 1944 1922.4 
" style="fill: none; stroke: #000000; stroke-width: 0.8; stroke-linejoin: miter; stroke-linecap: square"/>
   </g>
   <g id="patch_6">
    <path d="M 270 259.2 
L 1944 259.2 
" style="fill: none; stroke: #000000; stroke-width: 0.8; stroke-linejoin: miter; stroke-linecap: square"/>
   </g>
   <g id="text_1">
    <g clip-path="url(#p4975a43a30)">
     <!-- film_director -->
     <g style="opacity: 0.7" transform="translate(1708.407155 800.685021) scale(0.1 -0.1)">
      <defs>
       <path id="DejaVuSans-66" d="M 2375 4863 
L 2375 4384 
L 1825 4384 
Q 1516 4384 1395 4259 
Q 1275 4134 1275 3809 
L 1275 3500 
L 2222 3500 
L 2222 3053 
L 1275 3053 
L 1275 0 
L 697 0 
L 697 3053 
L 147 3053 
L 147 3500 
L 697 3500 
L 697 3744 
Q 697 4328 969 4595 
Q 1241 4863 1831 4863 
L 2375 4863 
z
" transform="scale(0.015625)"/>
       <path id="DejaVuSans-69" d="M 603 3500 
L 1178 3500 
L 1178 0 
L 603 0 
L 603 3500 
z
M 603 4863 
L 1178 4863 
L 1178 4134 
L 603 4134 
L 603 4863 
z
" transform="scale(0.015625)"/>
       <path id="DejaVuSans-6c" d="M 603 4863 
L 1178 4863 
L 1178 0 
L 603 0 
L 603 4863 
z
" transform="scale(0.015625)"/>
       <path id="DejaVuSans-6d" d="M 3328 2828 
Q 3544 3216 3844 3400 
Q 4144 3584 4550 3584 
Q 5097 3584 5394 3201 
Q 5691 2819 5691 2113 
L 5691 0 
L 5113 0 
L 5113 2094 
Q 5113 2597 4934 2840 
Q 4756 3084 4391 3084 
Q 3944 3084 3684 2787 
Q 3425 2491 3425 1978 
L 3425 0 
L 2847 0 
L 2847 2094 
Q 2847 2600 2669 2842 
Q 2491 3084 2119 3084 
Q 1678 3084 1418 2786 
Q 1159 2488 1159 1978 
L 1159 0 
L 581 0 
L 581 3500 
L 1159 3500 
L 1159 2956 
Q 1356 3278 1631 3431 
Q 1906 3584 2284 3584 
Q 2666 3584 2933 3390 
Q 3200 3197 3328 2828 
z
" transform="scale(0.015625)"/>
       <path id="DejaVuSans-5f" d="M 3263 -1063 
L 3263 -1509 
L -63 -1509 
L -63 -1063 
L 3263 -1063 
z
" transform="scale(0.015625)"/>
       <path id="DejaVuSans-64" d="M 2906 2969 
L 2906 4863 
L 3481 4863 
L 3481 0 
L 2906 0 
L 2906 525 
Q 2725 213 2448 61 
Q 2172 -91 1784 -91 
Q 1150 -91 751 415 
Q 353 922 353 1747 
Q 353 2572 751 3078 
Q 1150 3584 1784 3584 
Q 2172 3584 2448 3432 
Q 2725 3281 2906 2969 
z
M 947 1747 
Q 947 1113 1208 752 
Q 1469 391 1925 391 
Q 2381 391 2643 752 
Q 2906 1113 2906 1747 
Q 2906 2381 2643 2742 
Q 2381 3103 1925 3103 
Q 1469 3103 1208 2742 
Q 947 2381 947 1747 
z
" transform="scale(0.015625)"/>
       <path id="DejaVuSans-72" d="M 2631 2963 
Q 2534 3019 2420 3045 
Q 2306 3072 2169 3072 
Q 1681 3072 1420 2755 
Q 1159 2438 1159 1844 
L 1159 0 
L 581 0 
L 581 3500 
L 1159 3500 
L 1159 2956 
Q 1341 3275 1631 3429 
Q 1922 3584 2338 3584 
Q 2397 3584 2469 3576 
Q 2541 3569 2628 3553 
L 2631 2963 
z
" transform="scale(0.015625)"/>
       <path id="DejaVuSans-65" d="M 3597 1894 
L 3597 1613 
L 953 1613 
Q 991 1019 1311 708 
Q 1631 397 2203 397 
Q 2534 397 2845 478 
Q 3156 559 3463 722 
L 3463 178 
Q 3153 47 2828 -22 
Q 2503 -91 2169 -91 
Q 1331 -91 842 396 
Q 353 884 353 1716 
Q 353 2575 817 3079 
Q 1281 3584 2069 3584 
Q 2775 3584 3186 3129 
Q 3597 2675 3597 1894 
z
M 3022 2063 
Q 3016 2534 2758 2815 
Q 2500 3097 2075 3097 
Q 1594 3097 1305 2825 
Q 1016 2553 972 2059 
L 3022 2063 
z
" transform="scale(0.015625)"/>
       <path id="DejaVuSans-63" d="M 3122 3366 
L 3122 2828 
Q 2878 2963 2633 3030 
Q 2388 3097 2138 3097 
Q 1578 3097 1268 2742 
Q 959 2388 959 1747 
Q 959 1106 1268 751 
Q 1578 397 2138 397 
Q 2388 397 2633 464 
Q 2878 531 3122 666 
L 3122 134 
Q 2881 22 2623 -34 
Q 2366 -91 2075 -91 
Q 1284 -91 818 406 
Q 353 903 353 1747 
Q 353 2603 823 3093 
Q 1294 3584 2113 3584 
Q 2378 3584 2631 3529 
Q 2884 3475 3122 3366 
z
" transform="scale(0.015625)"/>
       <path id="DejaVuSans-74" d="M 1172 4494 
L 1172 3500 
L 2356 3500 
L 2356 3053 
L 1172 3053 
L 1172 1153 
Q 1172 725 1289 603 
Q 1406 481 1766 481 
L 2356 481 
L 2356 0 
L 1766 0 
Q 1100 0 847 248 
Q 594 497 594 1153 
L 594 3053 
L 172 3053 
L 172 3500 
L 594 3500 
L 594 4494 
L 1172 4494 
z
" transform="scale(0.015625)"/>
       <path id="DejaVuSans-6f" d="M 1959 3097 
Q 1497 3097 1228 2736 
Q 959 2375 959 1747 
Q 959 1119 1226 758 
Q 1494 397 1959 397 
Q 2419 397 2687 759 
Q 2956 1122 2956 1747 
Q 2956 2369 2687 2733 
Q 2419 3097 1959 3097 
z
M 1959 3584 
Q 2709 3584 3137 3096 
Q 3566 2609 3566 1747 
Q 3566 888 3137 398 
Q 2709 -91 1959 -91 
Q 1206 -91 779 398 
Q 353 888 353 1747 
Q 353 2609 779 3096 
Q 1206 3584 1959 3584 
z
" transform="scale(0.015625)"/>
      </defs>
      <use xlink:href="#DejaVuSans-66"/>
      <use xlink:href="#DejaVuSans-69" x="35.205078"/>
      <use xlink:href="#DejaVuSans-6c" x="62.988281"/>
      <use xlink:href="#DejaVuSans-6d" x="90.771484"/>
      <use xlink:href="#DejaVuSans-5f" x="188.183594"/>
      <use xlink:href="#DejaVuSans-64" x="238.183594"/>
      <use xlink:href="#DejaVuSans-69" x="301.660156"/>
      <use xlink:href="#DejaVuSans-72" x="329.443359"/>
      <use xlink:href="#DejaVuSans-65" x="368.306641"/>
      <use xlink:href="#DejaVuSans-63" x="429.830078"/>
      <use xlink:href="#DejaVuSans-74" x="484.810547"/>
      <use xlink:href="#DejaVuSans-6f" x="524.019531"/>
      <use xlink:href="#DejaVuSans-72" x="585.201172"/>
     </g>
    </g>
   </g>
   <g id="text_2">
    <g clip-path="url(#p4975a43a30)">
     <!-- film_producer -->
     <g style="opacity: 0.7" transform="translate(1629.985172 633.862335) scale(0.1 -0.1)">
      <defs>
       <path id="DejaVuSans-70" d="M 1159 525 
L 1159 -1331 
L 581 -1331 
L 581 3500 
L 1159 3500 
L 1159 2969 
Q 1341 3281 1617 3432 
Q 1894 3584 2278 3584 
Q 2916 3584 3314 3078 
Q 3713 2572 3713 1747 
Q 3713 922 3314 415 
Q 2916 -91 2278 -91 
Q 1894 -91 1617 61 
Q 1341 213 1159 525 
z
M 3116 1747 
Q 3116 2381 2855 2742 
Q 2594 3103 2138 3103 
Q 1681 3103 1420 2742 
Q 1159 2381 1159 1747 
Q 1159 1113 1420 752 
Q 1681 391 2138 391 
Q 2594 391 2855 752 
Q 3116 1113 3116 1747 
z
" transform="scale(0.015625)"/>
       <path id="DejaVuSans-75" d="M 544 1381 
L 544 3500 
L 1119 3500 
L 1119 1403 
Q 1119 906 1312 657 
Q 1506 409 1894 409 
Q 2359 409 2629 706 
Q 2900 1003 2900 1516 
L 2900 3500 
L 3475 3500 
L 3475 0 
L 2900 0 
L 2900 538 
Q 2691 219 2414 64 
Q 2138 -91 1772 -91 
Q 1169 -91 856 284 
Q 544 659 544 1381 
z
M 1991 3584 
L 1991 3584 
z
" transform="scale(0.015625)"/>
      </defs>
      <use xlink:href="#DejaVuSans-66"/>
      <use xlink:href="#DejaVuSans-69" x="35.205078"/>
      <use xlink:href="#DejaVuSans-6c" x="62.988281"/>
      <use xlink:href="#DejaVuSans-6d" x="90.771484"/>
      <use xlink:href="#DejaVuSans-5f" x="188.183594"/>
      <use xlink:href="#DejaVuSans-70" x="238.183594"/>
      <use xlink:href="#DejaVuSans-72" x="301.660156"/>
      <use xlink:href="#DejaVuSans-6f" x="340.523438"/>
      <use xlink:href="#DejaVuSans-64" x="401.705078"/>
      <use xlink:href="#DejaVuSans-75" x="465.181641"/>
      <use xlink:href="#DejaVuSans-63" x="528.560547"/>
      <use xlink:href="#DejaVuSans-65" x="583.541016"/>
      <use xlink:href="#DejaVuSans-72" x="645.064453"/>
     </g>
    </g>
   </g>
   <g id="text_3">
    <g clip-path="url(#p4975a43a30)">
     <!-- screenwriter -->
     <g style="opacity: 0.7" transform="translate(1561.542426 1014.269983) scale(0.1 -0.1)">
      <defs>
       <path id="DejaVuSans-73" d="M 2834 3397 
L 2834 2853 
Q 2591 2978 2328 3040 
Q 2066 3103 1784 3103 
Q 1356 3103 1142 2972 
Q 928 2841 928 2578 
Q 928 2378 1081 2264 
Q 1234 2150 1697 2047 
L 1894 2003 
Q 2506 1872 2764 1633 
Q 3022 1394 3022 966 
Q 3022 478 2636 193 
Q 2250 -91 1575 -91 
Q 1294 -91 989 -36 
Q 684 19 347 128 
L 347 722 
Q 666 556 975 473 
Q 1284 391 1588 391 
Q 1994 391 2212 530 
Q 2431 669 2431 922 
Q 2431 1156 2273 1281 
Q 2116 1406 1581 1522 
L 1381 1569 
Q 847 1681 609 1914 
Q 372 2147 372 2553 
Q 372 3047 722 3315 
Q 1072 3584 1716 3584 
Q 2034 3584 2315 3537 
Q 2597 3491 2834 3397 
z
" transform="scale(0.015625)"/>
       <path id="DejaVuSans-6e" d="M 3513 2113 
L 3513 0 
L 2938 0 
L 2938 2094 
Q 2938 2591 2744 2837 
Q 2550 3084 2163 3084 
Q 1697 3084 1428 2787 
Q 1159 2491 1159 1978 
L 1159 0 
L 581 0 
L 581 3500 
L 1159 3500 
L 1159 2956 
Q 1366 3272 1645 3428 
Q 1925 3584 2291 3584 
Q 2894 3584 3203 3211 
Q 3513 2838 3513 2113 
z
" transform="scale(0.015625)"/>
       <path id="DejaVuSans-77" d="M 269 3500 
L 844 3500 
L 1563 769 
L 2278 3500 
L 2956 3500 
L 3675 769 
L 4391 3500 
L 4966 3500 
L 4050 0 
L 3372 0 
L 2619 2869 
L 1863 0 
L 1184 0 
L 269 3500 
z
" transform="scale(0.015625)"/>
      </defs>
      <use xlink:href="#DejaVuSans-73"/>
      <use xlink:href="#DejaVuSans-63" x="52.099609"/>
      <use xlink:href="#DejaVuSans-72" x="107.080078"/>
      <use xlink:href="#DejaVuSans-65" x="145.943359"/>
      <use xlink:href="#DejaVuSans-65" x="207.466797"/>
      <use xlink:href="#DejaVuSans-6e" x="268.990234"/>
      <use xlink:href="#DejaVuSans-77" x="332.369141"/>
      <use xlink:href="#DejaVuSans-72" x="414.15625"/>
      <use xlink:href="#DejaVuSans-69" x="455.269531"/>
      <use xlink:href="#DejaVuSans-74" x="483.052734"/>
      <use xlink:href="#DejaVuSans-65" x="522.261719"/>
      <use xlink:href="#DejaVuSans-72" x="583.785156"/>
     </g>
    </g>
   </g>
   <g id="text_4">
    <g clip-path="url(#p4975a43a30)">
     <!-- actor -->
     <g style="opacity: 0.7" transform="translate(1785.847256 483.249154) scale(0.1 -0.1)">
      <defs>
       <path id="DejaVuSans-61" d="M 2194 1759 
Q 1497 1759 1228 1600 
Q 959 1441 959 1056 
Q 959 750 1161 570 
Q 1363 391 1709 391 
Q 2188 391 2477 730 
Q 2766 1069 2766 1631 
L 2766 1759 
L 2194 1759 
z
M 3341 1997 
L 3341 0 
L 2766 0 
L 2766 531 
Q 2569 213 2275 61 
Q 1981 -91 1556 -91 
Q 1019 -91 701 211 
Q 384 513 384 1019 
Q 384 1609 779 1909 
Q 1175 2209 1959 2209 
L 2766 2209 
L 2766 2266 
Q 2766 2663 2505 2880 
Q 2244 3097 1772 3097 
Q 1472 3097 1187 3025 
Q 903 2953 641 2809 
L 641 3341 
Q 956 3463 1253 3523 
Q 1550 3584 1831 3584 
Q 2591 3584 2966 3190 
Q 3341 2797 3341 1997 
z
" transform="scale(0.015625)"/>
      </defs>
      <use xlink:href="#DejaVuSans-61"/>
      <use xlink:href="#DejaVuSans-63" x="61.279297"/>
      <use xlink:href="#DejaVuSans-74" x="116.259766"/>
      <use xlink:href="#DejaVuSans-6f" x="155.46875"/>
      <use xlink:href="#DejaVuSans-72" x="216.650391"/>
     </g>
    </g>
   </g>
   <g id="text_5">
    <g clip-path="url(#p4975a43a30)">
     <!-- television_producer -->
     <g style="opacity: 0.7" transform="translate(1438.070808 1433.842688) scale(0.1 -0.1)">
      <defs>
       <path id="DejaVuSans-76" d="M 191 3500 
L 800 3500 
L 1894 563 
L 2988 3500 
L 3597 3500 
L 2284 0 
L 1503 0 
L 191 3500 
z
" transform="scale(0.015625)"/>
      </defs>
      <use xlink:href="#DejaVuSans-74"/>
      <use xlink:href="#DejaVuSans-65" x="39.208984"/>
      <use xlink:href="#DejaVuSans-6c" x="100.732422"/>
      <use xlink:href="#DejaVuSans-65" x="128.515625"/>
      <use xlink:href="#DejaVuSans-76" x="190.039062"/>
      <use xlink:href="#DejaVuSans-69" x="249.21875"/>
      <use xlink:href="#DejaVuSans-73" x="277.001953"/>
      <use xlink:href="#DejaVuSans-69" x="329.101562"/>
      <use xlink:href="#DejaVuSans-6f" x="356.884766"/>
      <use xlink:href="#DejaVuSans-6e" x="418.066406"/>
      <use xlink:href="#DejaVuSans-5f" x="481.445312"/>
      <use xlink:href="#DejaVuSans-70" x="531.445312"/>
      <use xlink:href="#DejaVuSans-72" x="594.921875"/>
      <use xlink:href="#DejaVuSans-6f" x="633.785156"/>
      <use xlink:href="#DejaVuSans-64" x="694.966797"/>
      <use xlink:href="#DejaVuSans-75" x="758.443359"/>
      <use xlink:href="#DejaVuSans-63" x="821.822266"/>
      <use xlink:href="#DejaVuSans-65" x="876.802734"/>
      <use xlink:href="#DejaVuSans-72" x="938.326172"/>
     </g>
    </g>
   </g>
   <g id="text_6">
    <g clip-path="url(#p4975a43a30)">
     <!-- television_writer -->
     <g style="opacity: 0.7" transform="translate(1356.048106 1780.69304) scale(0.1 -0.1)">
      <use xlink:href="#DejaVuSans-74"/>
      <use xlink:href="#DejaVuSans-65" x="39.208984"/>
      <use xlink:href="#DejaVuSans-6c" x="100.732422"/>
      <use xlink:href="#DejaVuSans-65" x="128.515625"/>
      <use xlink:href="#DejaVuSans-76" x="190.039062"/>
      <use xlink:href="#DejaVuSans-69" x="249.21875"/>
      <use xlink:href="#DejaVuSans-73" x="277.001953"/>
      <use xlink:href="#DejaVuSans-69" x="329.101562"/>
      <use xlink:href="#DejaVuSans-6f" x="356.884766"/>
      <use xlink:href="#DejaVuSans-6e" x="418.066406"/>
      <use xlink:href="#DejaVuSans-5f" x="481.445312"/>
      <use xlink:href="#DejaVuSans-77" x="531.445312"/>
      <use xlink:href="#DejaVuSans-72" x="613.232422"/>
      <use xlink:href="#DejaVuSans-69" x="654.345703"/>
      <use xlink:href="#DejaVuSans-74" x="682.128906"/>
      <use xlink:href="#DejaVuSans-65" x="721.337891"/>
      <use xlink:href="#DejaVuSans-72" x="782.861328"/>
     </g>
    </g>
   </g>
   <g id="text_7">
    <g clip-path="url(#p4975a43a30)">
     <!-- journalist -->
     <g style="opacity: 0.7" transform="translate(726.148284 755.996574) scale(0.1 -0.1)">
      <defs>
       <path id="DejaVuSans-6a" d="M 603 3500 
L 1178 3500 
L 1178 -63 
Q 1178 -731 923 -1031 
Q 669 -1331 103 -1331 
L -116 -1331 
L -116 -844 
L 38 -844 
Q 366 -844 484 -692 
Q 603 -541 603 -63 
L 603 3500 
z
M 603 4863 
L 1178 4863 
L 1178 4134 
L 603 4134 
L 603 4863 
z
" transform="scale(0.015625)"/>
      </defs>
      <use xlink:href="#DejaVuSans-6a"/>
      <use xlink:href="#DejaVuSans-6f" x="27.783203"/>
      <use xlink:href="#DejaVuSans-75" x="88.964844"/>
      <use xlink:href="#DejaVuSans-72" x="152.34375"/>
      <use xlink:href="#DejaVuSans-6e" x="191.707031"/>
      <use xlink:href="#DejaVuSans-61" x="255.085938"/>
      <use xlink:href="#DejaVuSans-6c" x="316.365234"/>
      <use xlink:href="#DejaVuSans-69" x="344.148438"/>
      <use xlink:href="#DejaVuSans-73" x="371.931641"/>
      <use xlink:href="#DejaVuSans-74" x="424.03125"/>
     </g>
    </g>
   </g>
   <g id="text_8">
    <g clip-path="url(#p4975a43a30)">
     <!-- poet -->
     <g style="opacity: 0.7" transform="translate(534.285373 693.346846) scale(0.1 -0.1)">
      <use xlink:href="#DejaVuSans-70"/>
      <use xlink:href="#DejaVuSans-6f" x="63.476562"/>
      <use xlink:href="#DejaVuSans-65" x="124.658203"/>
      <use xlink:href="#DejaVuSans-74" x="186.181641"/>
     </g>
    </g>
   </g>
   <g id="text_9">
    <g clip-path="url(#p4975a43a30)">
     <!-- playwright -->
     <g style="opacity: 0.7" transform="translate(388.841025 939.158439) scale(0.1 -0.1)">
      <defs>
       <path id="DejaVuSans-79" d="M 2059 -325 
Q 1816 -950 1584 -1140 
Q 1353 -1331 966 -1331 
L 506 -1331 
L 506 -850 
L 844 -850 
Q 1081 -850 1212 -737 
Q 1344 -625 1503 -206 
L 1606 56 
L 191 3500 
L 800 3500 
L 1894 763 
L 2988 3500 
L 3597 3500 
L 2059 -325 
z
" transform="scale(0.015625)"/>
       <path id="DejaVuSans-67" d="M 2906 1791 
Q 2906 2416 2648 2759 
Q 2391 3103 1925 3103 
Q 1463 3103 1205 2759 
Q 947 2416 947 1791 
Q 947 1169 1205 825 
Q 1463 481 1925 481 
Q 2391 481 2648 825 
Q 2906 1169 2906 1791 
z
M 3481 434 
Q 3481 -459 3084 -895 
Q 2688 -1331 1869 -1331 
Q 1566 -1331 1297 -1286 
Q 1028 -1241 775 -1147 
L 775 -588 
Q 1028 -725 1275 -790 
Q 1522 -856 1778 -856 
Q 2344 -856 2625 -561 
Q 2906 -266 2906 331 
L 2906 616 
Q 2728 306 2450 153 
Q 2172 0 1784 0 
Q 1141 0 747 490 
Q 353 981 353 1791 
Q 353 2603 747 3093 
Q 1141 3584 1784 3584 
Q 2172 3584 2450 3431 
Q 2728 3278 2906 2969 
L 2906 3500 
L 3481 3500 
L 3481 434 
z
" transform="scale(0.015625)"/>
       <path id="DejaVuSans-68" d="M 3513 2113 
L 3513 0 
L 2938 0 
L 2938 2094 
Q 2938 2591 2744 2837 
Q 2550 3084 2163 3084 
Q 1697 3084 1428 2787 
Q 1159 2491 1159 1978 
L 1159 0 
L 581 0 
L 581 4863 
L 1159 4863 
L 1159 2956 
Q 1366 3272 1645 3428 
Q 1925 3584 2291 3584 
Q 2894 3584 3203 3211 
Q 3513 2838 3513 2113 
z
" transform="scale(0.015625)"/>
      </defs>
      <use xlink:href="#DejaVuSans-70"/>
      <use xlink:href="#DejaVuSans-6c" x="63.476562"/>
      <use xlink:href="#DejaVuSans-61" x="91.259766"/>
      <use xlink:href="#DejaVuSans-79" x="152.539062"/>
      <use xlink:href="#DejaVuSans-77" x="211.71875"/>
      <use xlink:href="#DejaVuSans-72" x="293.505859"/>
      <use xlink:href="#DejaVuSans-69" x="334.619141"/>
      <use xlink:href="#DejaVuSans-67" x="362.402344"/>
      <use xlink:href="#DejaVuSans-68" x="425.878906"/>
      <use xlink:href="#DejaVuSans-74" x="489.257812"/>
     </g>
    </g>
   </g>
   <g id="text_10">
    <g clip-path="url(#p4975a43a30)">
     <!-- novelist -->
     <g style="opacity: 0.7" transform="translate(402.430365 406.286648) scale(0.1 -0.1)">
      <use xlink:href="#DejaVuSans-6e"/>
      <use xlink:href="#DejaVuSans-6f" x="63.378906"/>
      <use xlink:href="#DejaVuSans-76" x="124.560547"/>
      <use xlink:href="#DejaVuSans-65" x="183.740234"/>
      <use xlink:href="#DejaVuSans-6c" x="245.263672"/>
      <use xlink:href="#DejaVuSans-69" x="273.046875"/>
      <use xlink:href="#DejaVuSans-73" x="300.830078"/>
      <use xlink:href="#DejaVuSans-74" x="352.929688"/>
     </g>
    </g>
   </g>
  </g>
 </g>
 <defs>
  <clipPath id="p4975a43a30">
   <rect x="270" y="259.2" width="1674" height="1663.2"/>
  </clipPath>
 </defs>
</svg>
